PathFileType	4	(X/Y/Z)	C:/Users/opensim2020/Desktop/walking_exp_matlab/subject03_walking13_straight_03.trc																																																																																																																																								
DataRate	CameraRate	NumFrames	NumMarkers	Units	OrigDataRate	OrigDataStartFrame	OrigNumFrames																																																																																																																																				
100	100	8	46	mm	100	1809	209																																																																																																																																				
Frame#	Time	LFHD			RFHD			LBHD			RBHD			C7			T10			CLAV			STRN			RBAK			LSHO			LUPA			LELB			LFRM			LWRA			LWRB			LFIN			RSHO			RUPA			RELB			RFRM			RWRA			RWRB			RFIN			LASI			RASI			LPSI			RPSI			LTHI			LKNE			LTIB			LANK			LHEE			LTOE			RTHI			RKNE			RTIB			RANK			RHEE			RTOE			*39			*40			*41			*42			*43			*44			*45		
		X1	Y1	Z1	X2	Y2	Z2	X3	Y3	Z3	X4	Y4	Z4	X5	Y5	Z5	X6	Y6	Z6	X7	Y7	Z7	X8	Y8	Z8	X9	Y9	Z9	X10	Y10	Z10	X11	Y11	Z11	X12	Y12	Z12	X13	Y13	Z13	X14	Y14	Z14	X15	Y15	Z15	X16	Y16	Z16	X17	Y17	Z17	X18	Y18	Z18	X19	Y19	Z19	X20	Y20	Z20	X21	Y21	Z21	X22	Y22	Z22	X23	Y23	Z23	X24	Y24	Z24	X25	Y25	Z25	X26	Y26	Z26	X27	Y27	Z27	X28	Y28	Z28	X29	Y29	Z29	X30	Y30	Z30	X31	Y31	Z31	X32	Y32	Z32	X33	Y33	Z33	X34	Y34	Z34	X35	Y35	Z35	X36	Y36	Z36	X37	Y37	Z37	X38	Y38	Z38	X39	Y39	Z39	X40	Y40	Z40	X41	Y41	Z41	X42	Y42	Z42	X43	Y43	Z43	X44	Y44	Z44	X45	Y45	Z45	X46	Y46	Z46
																																																																																																																																											
183	1.82	1124.60046	1615.53064	-991.00336	1096.75952	1611.37146	-861.10217	1005.21649	1557.3219	-1014.92346	982.83716	1553.3562	-886.58386	980.14526	1397.10144	-969.88995	959.57227	1084.41479	-980.52887	1103.59351	1325.84875	-951.69556	1155.35229	1162.49316	-960.56946	919.19562	1215.06482	-896.27777	1082.83704	1370.06506	-1109.75293	1136.38464	1189.84888	-1190.38477	1190.69507	1079.42737	-1202.86938	1268.27026	975.70367	-1189.51685	1328.90845	877.64362	-1149.14343	1320.04846	874.88892	-1203.66333	1372.21362	812.0744	-1187.13098	1028.61743	1336.64148	-800.60114	1011.87909	1109.32263	-746.56592	1020.98938	996.34418	-738.60669	1031.01831	859.48407	-742.4375	1067.00879	765.5777	-773.09973	1022.99579	758.79144	-742.26868	1048.45337	689.46259	-746.23749	1128.44299	926.7854	-1094.80286	1122.33789	919.10132	-855.17023	965.69727	952.26794	-1046.04419	962.53967	947.27026	-897.56561	1027.60986	632.85199	-1133.13586	986.24017	459.2887	-1095.79712	889.8894	285.33066	-1102.73206	818.61652	85.65127	-1065.21594	770.50323	58.35674	-1031.88013	962.3385	29.15931	-1035.90601	1132.59131	628.09216	-816.10223	1213.19287	469.75992	-856.02435	1227.51831	281.9534	-858.00006	1280.51538	71.27744	-906.4046	1252.99219	33.81312	-965.53021	1425.40967	67.03202	-911.07196	1026.38257	1662.23645	-956.39301	NaN	NaN	NaN	NaN	NaN	NaN	NaN	NaN	NaN	NaN	NaN	NaN	NaN	NaN	NaN	NaN	NaN	NaN
184	1.83	1138.16138	1613.60999	-988.87891	1110.17371	1609.16504	-859.00543	1018.80292	1555.48059	-1013.12189	996.33081	1551.21472	-884.74982	993.42175	1395.06934	-968.19037	972.77386	1082.33105	-978.06689	1117.0918	1323.77332	-950.3678	1168.75183	1160.48926	-959.83472	932.60266	1213.0769	-894.43933	1095.573	1368.3241	-1108.15564	1151.09778	1189.39636	-1188.68506	1207.67822	1080.01892	-1200.66956	1288.08618	978.77856	-1186.3739	1351.64807	883.29333	-1144.77234	1342.9353	879.4364	-1199.16736	1397.47351	819.2417	-1181.97498	1042.47314	1334.38135	-799.0293	1023.36572	1107.19385	-745.68652	1030.72437	994.1004	-737.89166	1037.31042	856.95923	-741.68591	1070.05078	761.82361	-772.66205	1026.65234	756.47797	-741.44165	1049.47351	686.04834	-745.91034	1140.27478	925.01672	-1094.64001	1137.25171	917.04364	-854.41376	978.48138	950.20776	-1043.44983	976.72479	945.03693	-894.80853	1037.82837	632.15363	-1132.58569	995.0412	458.5112	-1096.12048	895.48297	286.27469	-1103.01855	820.05975	87.92204	-1065.90979	771.43793	61.75719	-1032.62207	962.51581	29.08209	-1036.10034	1142.32092	623.99225	-812.71588	1225.17114	466.50464	-856.37921	1247.61743	281.05908	-857.74854	1310.66235	72.71061	-905.02728	1285.2832	33.71696	-964.23676	1455.97974	74.69682	-908.62152	1039.89258	1660.27527	-954.146	NaN	NaN	NaN	NaN	NaN	NaN	NaN	NaN	NaN	NaN	NaN	NaN	NaN	NaN	NaN	NaN	NaN	NaN
185	1.84	1151.68127	1611.73926	-986.64185	1123.5116	1607.0332	-856.87604	1032.33521	1553.79407	-1011.25067	1009.62903	1549.23657	-883.05823	1006.64044	1393.00256	-966.23474	986.26172	1080.34448	-975.6886	1130.6051	1321.83008	-949.01239	1182.31238	1158.64844	-958.98999	946.13171	1211.05078	-892.6546	1108.24512	1366.67322	-1106.50659	1165.57935	1188.89746	-1186.87744	1224.10486	1080.52942	-1198.47168	1307.22998	981.89813	-1183.24365	1373.63586	889.06714	-1140.34827	1365.08154	884.15881	-1194.67224	1421.85962	826.59753	-1176.729	1056.3634	1332.29553	-797.39539	1034.99927	1105.15332	-744.79663	1040.48474	992.03186	-736.89758	1043.97546	854.66821	-740.86713	1074.46301	758.58917	-771.67737	1030.7251	754.43628	-740.67743	1050.93628	683.09821	-745.55402	1154.01819	923.84216	-1092.93762	1152.03662	914.93976	-853.58948	991.47174	948.24457	-1040.7865	991.51581	942.74048	-892.06812	1048.57556	631.65155	-1132.31104	1004.59161	457.83051	-1096.60181	901.66632	287.39319	-1103.50403	821.74823	90.54424	-1066.74536	772.47302	65.64885	-1033.48474	962.52386	28.73589	-1036.22253	1152.39636	620.18195	-810.52991	1238.01392	463.78137	-856.47552	1266.5437	280.43921	-857.70856	1337.26257	74.09509	-904.34729	1313.92542	34.41171	-963.86426	1482.93848	80.54765	-906.32605	1053.38184	1658.39209	-951.81873	NaN	NaN	NaN	NaN	NaN	NaN	NaN	NaN	NaN	NaN	NaN	NaN	NaN	NaN	NaN	NaN	NaN	NaN
186	1.85	1165.32349	1610.17505	-984.45355	1136.91809	1605.05725	-854.7066	1045.9104	1552.37183	-1009.38983	1022.95367	1547.40356	-881.18536	1019.9967	1390.93518	-964.25922	1000.03845	1078.44763	-973.2948	1144.17517	1320.05103	-947.54169	1196.00635	1156.94983	-957.93591	959.75854	1209.09387	-890.80804	1120.89111	1365.10535	-1104.75635	1179.93445	1188.31384	-1184.96045	1239.90393	1080.88428	-1196.3125	1325.70056	984.97058	-1180.12305	1394.85571	894.96741	-1135.89722	1386.51282	888.98657	-1190.13904	1445.35828	834.06317	-1171.47595	1070.39075	1330.39185	-795.67493	1046.83154	1103.26843	-743.71368	1050.60364	990.07214	-735.99896	1051.03052	852.71625	-739.94196	1079.28625	755.67749	-770.78619	1035.04004	752.59576	-739.94611	1052.9458	680.56104	-745.36713	1167.25525	922.59796	-1091.98572	1167.01538	913.09857	-852.78253	1004.76917	946.40076	-1038.11475	1006.14038	940.69336	-889.32776	1059.86255	631.25366	-1132.18103	1014.97656	457.19525	-1097.18567	908.43933	288.55893	-1104.07056	823.84717	93.67194	-1067.70715	773.88977	69.93566	-1034.52209	962.74213	28.6296	-1036.36145	1164.29468	616.84552	-808.94543	1251.93835	461.93121	-856.48706	1284.26819	279.84064	-857.75983	1359.96179	74.85979	-904.31769	1338.12488	34.8147	-964.1145	1505.79944	84.00575	-904.67792	1067.06299	1656.90649	-950.00336	NaN	NaN	NaN	NaN	NaN	NaN	NaN	NaN	NaN	NaN	NaN	NaN	NaN	NaN	NaN	NaN	NaN	NaN
187	1.86	1178.88745	1608.66858	-982.17218	1150.29553	1603.17078	-852.44531	1059.40259	1551.07288	-1007.43988	1036.43958	1545.78455	-879.2373	1033.58557	1389.09375	-962.01276	1013.96643	1076.65515	-971.05029	1157.81812	1318.40625	-945.96613	1209.91174	1155.45435	-956.67041	973.5705	1207.18982	-888.88116	1133.60938	1363.69495	-1102.91052	1194.11902	1187.677	-1182.83447	1255.05164	1081.11963	-1194.34241	1343.42163	988.01831	-1177.11597	1415.27881	900.98218	-1131.44604	1407.17395	893.9082	-1185.5802	1467.92273	841.58789	-1166.17224	1084.39636	1328.53552	-793.77704	1058.34875	1101.49011	-742.83124	1060.50781	988.1911	-735.17316	1058.47656	851.02496	-738.99438	1084.55676	753.21777	-769.8927	1040.17566	751.17651	-739.11798	1055.61121	678.41876	-745.23743	1180.65918	921.30438	-1091.00562	1181.87866	911.38806	-851.77228	1018.27985	944.68304	-1035.39941	1020.75836	938.91266	-886.71753	1071.81384	630.76141	-1131.85193	1026.06604	456.46408	-1097.77563	915.78296	289.79095	-1104.7041	826.25586	97.08189	-1068.74414	775.61749	74.74173	-1035.65051	962.99164	28.50956	-1036.41089	1178.75232	614.81165	-808.31964	1266.92053	460.88028	-856.16748	1300.88391	279.00125	-857.62836	1378.40076	74.715	-904.57153	1357.13538	34.51373	-964.78271	1524.1676	84.72694	-904.14948	1080.65747	1655.36194	-947.67279	NaN	NaN	NaN	NaN	NaN	NaN	NaN	NaN	NaN	NaN	NaN	NaN	NaN	NaN	NaN	NaN	NaN	NaN
188	1.87	1192.4696	1607.2655	-979.86798	1163.7157	1601.43774	-850.19659	1072.93054	1549.94482	-1005.44348	1049.67712	1544.26929	-877.37292	1047.03711	1387.43176	-959.96741	1028.18115	1074.91431	-968.94855	1171.50342	1316.93188	-944.23706	1223.99658	1154.16162	-955.16052	987.51447	1205.3363	-886.82745	1146.40576	1362.40405	-1100.9989	1208.24219	1187.09131	-1180.74011	1269.55396	1081.04419	-1192.44897	1360.40979	990.96704	-1174.20935	1434.90161	907.03668	-1127.00281	1427.04175	898.82782	-1181.05261	1489.56616	849.04486	-1160.90613	1098.43481	1326.97803	-791.85907	1070.62537	1100.02112	-741.44092	1071.24475	986.86517	-733.65479	1066.31067	849.685	-738.07666	1090.35461	751.13208	-768.99762	1046.13892	750.19977	-738.16357	1058.96606	676.71112	-745.13287	1194.4353	920.03809	-1089.849	1196.64368	909.78528	-850.50684	1032.20911	943.1698	-1032.88403	1035.44849	937.36017	-884.3703	1084.53455	630.04663	-1131.20886	1038.03247	455.73148	-1098.38843	923.79211	291.11215	-1105.45813	829.04114	100.91028	-1069.79578	777.82465	80.16862	-1036.81604	963.25635	28.30336	-1036.52429	1195.25903	613.88104	-808.28357	1282.80676	460.5965	-855.48083	1316.34009	277.81497	-857.77063	1392.42371	73.23642	-905.43658	1370.99341	33.32454	-965.72632	1538.20703	82.52215	-904.84454	1094.25916	1653.94666	-945.23749	NaN	NaN	NaN	NaN	NaN	NaN	NaN	NaN	NaN	NaN	NaN	NaN	NaN	NaN	NaN	NaN	NaN	NaN
189	1.88	1205.95032	1605.96802	-977.54492	1177.13818	1599.92297	-847.91895	1086.40674	1548.89868	-1003.41077	1063.10547	1542.97192	-875.35822	1060.60205	1385.82581	-957.78558	1042.55408	1073.29871	-967.05847	1185.20459	1315.66443	-942.35736	1238.19885	1153.14563	-953.40582	1001.51276	1203.59094	-884.69672	1159.30432	1361.21118	-1099.06763	1222.07495	1186.49597	-1178.65308	1283.55884	1080.91052	-1190.76855	1376.72913	993.81342	-1171.37109	1453.75879	913.08368	-1122.68591	1446.10315	903.72571	-1176.5542	1510.25818	856.44427	-1155.65527	1112.56177	1325.51453	-789.79181	1083.07471	1098.77014	-739.85052	1082.44812	985.48413	-732.80225	1074.69788	848.17804	-737.39099	1096.65845	749.44098	-768.20471	1052.21936	749.24445	-737.30304	1063.11084	675.26556	-745.20532	1208.72266	918.87628	-1088.42334	1211.77771	908.60974	-848.88556	1046.68726	941.79578	-1030.65723	1050.28528	935.94873	-882.32446	1098.15259	629.33905	-1130.80176	1050.70667	454.34888	-1099.08337	932.43732	292.56638	-1106.28638	832.33441	105.1924	-1070.95251	780.50073	86.2429	-1037.94727	963.59247	28.1153	-1036.6051	1212.58435	613.85797	-808.54541	1300.07605	461.14984	-854.81921	1330.75818	276.33728	-857.9433	1402.80383	70.77968	-906.89539	1380.27295	31.26332	-967.18689	1548.40979	77.50571	-906.59143	1107.77014	1652.42371	-942.57202	NaN	NaN	NaN	NaN	NaN	NaN	NaN	NaN	NaN	NaN	NaN	NaN	NaN	NaN	NaN	NaN	NaN	NaN
190	1.89	1219.52197	1604.92456	-975.27429	1190.53027	1598.60132	-845.66052	1099.8717	1548.01367	-1001.29883	1076.35889	1541.78113	-873.34277	1073.88928	1384.54858	-955.81952	1057.21326	1071.72217	-965.21808	1198.99756	1314.59912	-940.37256	1252.48462	1152.26758	-951.414	1015.72308	1201.94409	-882.53052	1172.28882	1360.12183	-1097.08582	1235.43201	1185.71057	-1176.72803	1297.05469	1080.52881	-1189.09631	1392.38684	996.48242	-1168.65845	1471.80029	919.08051	-1118.46094	1464.37256	908.46637	-1172.07471	1530.01245	863.68329	-1150.50891	1126.56677	1324.29102	-787.6369	1095.66541	1097.65881	-738.13806	1093.86707	984.42072	-731.61499	1083.6145	847.2674	-736.41687	1103.54895	748.1106	-767.54144	1059.34009	748.68359	-736.36859	1068.23132	674.47992	-745.38586	1223.42517	917.7038	-1086.77551	1227.1731	907.78906	-846.93738	1061.67688	940.45874	-1028.67712	1065.20813	934.68103	-880.52264	1112.58105	628.35486	-1130.26025	1064.85071	453.45306	-1100.0033	941.89874	294.0524	-1107.08142	836.17377	110.00292	-1071.99512	783.87628	92.95573	-1038.93091	963.98022	27.89367	-1036.69482	1230.94714	614.52081	-808.3136	1318.17053	462.12552	-854.24176	1344.35193	274.50751	-858.17676	1410.05933	67.49819	-908.7998	1385.87817	28.82612	-969.00214	1555.37366	70.53575	-909.13892	1121.30176	1651.12427	-939.8631	NaN	NaN	NaN	NaN	NaN	NaN	NaN	NaN	NaN	NaN	NaN	NaN	NaN	NaN	NaN	NaN	NaN	NaN
